<?xml version="1.0" standalone="no"?>
<!DOCTYPE svg PUBLIC "-//W3C//DTD SVG 20010904//EN"
 "http://www.w3.org/TR/2001/REC-SVG-20010904/DTD/svg10.dtd">
<svg version="1.0" xmlns="http://www.w3.org/2000/svg"
 width="1280.000000pt" height="648.000000pt" viewBox="0 0 1280.000000 648.000000"
 preserveAspectRatio="xMidYMid meet">

<g transform="translate(0.000000,648.000000) scale(0.100000,-0.100000)"
fill="#000000" stroke="none">
<path d="M579 6470 c-216 -19 -412 -88 -537 -187 l-42 -34 0 -494 0 -493 31
-26 c45 -38 154 -99 231 -130 101 -40 236 -73 413 -101 355 -57 441 -95 460
-204 19 -113 -53 -203 -183 -230 -78 -16 -261 -14 -343 5 -131 30 -211 115
-226 242 l-6 52 -188 0 -189 0 0 -285 0 -284 52 -40 c117 -87 282 -149 473
-177 112 -16 134 -22 90 -23 -53 -2 -233 -50 -319 -85 -93 -39 -162 -78 -241
-136 l-55 -41 0 -929 0 -929 66 -47 c37 -26 94 -62 128 -80 l61 -34 -127 0
-128 0 0 -755 c0 -731 1 -757 20 -794 25 -50 103 -147 156 -194 l41 -37 615 0
615 0 62 61 c117 113 196 273 221 445 5 40 10 324 10 672 l0 602 -172 0 -173
0 77 44 c105 60 162 103 240 183 86 87 139 162 193 271 107 218 149 463 125
722 -45 485 -292 825 -721 993 -72 29 -232 67 -279 67 -55 0 -31 17 33 24 81
8 229 48 317 85 278 119 421 337 421 641 0 207 -53 343 -179 461 -153 143
-324 207 -742 279 -281 49 -370 83 -406 157 -23 48 -23 128 -1 171 22 40 78
78 137 91 67 16 237 13 303 -4 113 -29 180 -98 193 -198 l7 -47 305 0 305 0
-6 63 c-30 304 -215 531 -512 626 -171 55 -421 79 -626 61z m401 -2977 c171
-47 287 -170 350 -368 32 -98 39 -327 16 -446 -57 -286 -247 -451 -521 -451
-73 1 -118 6 -166 21 -71 22 -168 81 -211 127 -44 48 -97 144 -125 229 -25 74
-27 93 -27 255 -1 192 9 251 63 365 109 232 361 341 621 268z m-195 -1819
c149 -4 220 -2 280 9 44 8 82 13 85 12 3 -2 3 -272 0 -602 -5 -589 -5 -599
-27 -638 -39 -73 -117 -134 -191 -150 -48 -10 -171 -8 -210 4 -58 17 -122 61
-153 103 -59 82 -59 87 -59 714 l0 572 38 -10 c20 -5 127 -12 237 -14z"/>
<path d="M3350 6469 c-416 -37 -748 -245 -924 -578 -165 -314 -193 -725 -73
-1076 126 -369 420 -626 818 -715 268 -60 593 -37 835 60 377 151 628 484 685
907 16 125 6 403 -19 513 -106 455 -403 753 -857 860 -69 17 -308 43 -354 39
-9 -1 -59 -6 -111 -10z m311 -580 c167 -48 281 -178 341 -387 30 -102 32 -347
5 -457 -37 -148 -123 -275 -234 -345 -149 -95 -406 -96 -557 -3 -190 117 -288
375 -256 671 23 219 99 367 236 463 121 84 300 106 465 58z"/>
<path d="M5816 6469 c-174 -14 -313 -53 -468 -129 -311 -155 -505 -419 -585
-800 -25 -117 -25 -419 0 -540 74 -370 272 -641 582 -799 202 -104 468 -151
729 -130 583 47 978 403 1071 968 23 137 16 414 -13 541 -106 455 -403 753
-857 860 -67 16 -313 43 -349 39 -6 -1 -56 -5 -110 -10z m304 -579 c230 -67
370 -304 370 -624 0 -394 -202 -636 -532 -638 -195 0 -341 74 -439 225 -128
197 -141 554 -29 784 112 227 366 329 630 253z"/>
<path d="M10807 6423 c-4 -3 -7 -523 -7 -1155 l0 -1148 310 0 310 0 -1 418 c0
229 -4 539 -8 687 -5 149 -8 271 -7 272 1 2 35 -59 75 -135 83 -156 196 -350
508 -872 l218 -365 298 -3 297 -2 0 1155 0 1155 -257 -2 -258 -3 -2 -410 c-2
-225 0 -535 5 -688 4 -152 5 -277 2 -277 -3 0 -21 30 -40 68 -87 170 -680
1182 -752 1285 l-19 27 -333 0 c-183 0 -336 -3 -339 -7z"/>
<path d="M7596 4958 c-20 -170 -24 -237 -25 -360 -1 -82 -5 -138 -11 -138 -5
0 -36 14 -69 30 -33 17 -72 30 -88 28 -15 -1 -47 8 -70 20 -23 12 -49 22 -58
22 -24 0 -17 -34 11 -51 15 -9 82 -72 150 -140 120 -119 124 -125 124 -166 0
-46 13 -56 30 -23 6 11 14 20 18 20 5 0 18 -9 30 -20 23 -21 42 -26 42 -10 0
5 34 32 75 60 41 28 75 47 75 42 0 -11 -84 -90 -120 -113 -30 -20 -21 -34 17
-24 39 9 223 207 223 239 0 20 -49 -3 -147 -69 -62 -41 -115 -75 -118 -75 -8
0 35 81 63 118 19 25 22 36 14 44 -9 9 1 24 40 60 43 40 49 50 39 62 -11 14
-18 13 -60 -8 -25 -13 -69 -43 -96 -65 l-50 -41 -3 305 c-2 252 -5 305 -16
305 -10 0 -16 -17 -20 -52z m-86 -580 c35 -23 50 -40 50 -55 0 -13 -1 -23 -3
-23 -1 0 -27 25 -57 55 -30 30 -51 55 -47 55 4 0 30 -15 57 -32z m200 -13 c-7
-9 -15 -13 -19 -10 -3 3 1 10 9 15 21 14 24 12 10 -5z m-67 -69 c-14 -30 -15
-39 -4 -45 11 -7 11 -10 0 -16 -7 -5 -19 0 -30 14 -18 22 -18 23 14 56 17 18
33 32 35 31 1 -2 -5 -20 -15 -40z"/>
<path d="M6480 4017 c0 -7 18 -62 39 -122 22 -61 78 -220 126 -355 149 -421
255 -722 285 -805 16 -44 54 -152 85 -240 71 -201 220 -623 245 -691 l19 -51
-72 18 c-184 49 -473 51 -648 6 -342 -89 -553 -304 -641 -653 -19 -78 -22
-115 -22 -299 0 -195 2 -217 27 -310 49 -184 148 -345 282 -458 l68 -57 597 0
597 0 40 29 c183 132 297 343 333 618 16 115 8 371 -14 470 -56 256 -190 446
-401 569 l-50 29 349 5 348 5 389 1139 c214 627 389 1146 389 1153 0 19 -643
19 -657 1 -28 -36 -412 -1330 -484 -1631 -16 -68 -26 -93 -31 -80 -4 10 -32
114 -63 231 -72 275 -408 1385 -445 1470 l-10 22 -340 0 c-271 0 -340 -3 -340
-13z m544 -2677 c69 -26 152 -104 184 -173 41 -89 55 -171 54 -327 -1 -323
-75 -473 -259 -530 -153 -47 -325 -6 -417 101 -78 92 -108 205 -108 414 -1
317 84 474 284 530 69 20 187 13 262 -15z"/>
<path d="M8910 2875 l0 -1155 910 0 910 0 0 285 0 285 -587 2 -588 3 -3 153
-3 152 536 0 535 0 0 270 0 270 -532 2 -533 3 -3 153 -3 152 591 0 590 0 -2
288 -3 287 -907 3 -908 2 0 -1155z"/>
<path d="M10878 4024 c-5 -4 -8 -524 -8 -1156 l0 -1148 325 0 325 0 0 395 0
395 225 0 c202 0 230 -2 279 -21 36 -13 66 -33 85 -55 50 -61 61 -118 71 -355
9 -204 21 -302 42 -341 8 -17 32 -18 294 -18 l285 0 -3 398 -3 397 -27 57
c-36 77 -106 150 -184 190 -35 18 -64 36 -64 39 0 3 15 12 33 21 65 32 158
109 202 170 l45 62 0 299 0 298 -27 47 c-36 62 -136 158 -206 201 -74 44 -199
86 -317 107 -80 14 -196 17 -730 21 -349 3 -638 1 -642 -3z m1177 -532 c92
-43 134 -104 143 -209 9 -121 -32 -210 -121 -259 l-52 -29 -252 -3 -253 -3 0
266 0 266 243 -3 c228 -3 245 -4 292 -26z"/>
<path d="M4568 1794 c-283 -44 -474 -195 -532 -420 -20 -77 -20 -150 -1 -232
57 -242 244 -368 725 -487 179 -45 251 -76 295 -128 64 -75 60 -155 -13 -228
-54 -54 -99 -70 -200 -71 -85 0 -138 14 -198 55 -60 39 -100 104 -123 194 -16
61 -20 68 -42 67 -293 -15 -520 -32 -528 -39 -2 -3 3 -40 11 -83 28 -143 93
-272 185 -368 l51 -54 605 0 605 0 54 45 c63 54 138 161 168 242 70 186 43
389 -71 540 -103 136 -289 223 -679 314 -263 61 -315 90 -315 172 0 52 30 98
82 123 58 29 202 26 266 -5 62 -31 104 -82 125 -155 l17 -58 159 7 c87 4 171
8 185 10 14 2 60 4 101 6 115 3 110 -1 95 78 -53 274 -229 429 -542 476 -121
18 -366 18 -485 -1z"/>
<path d="M2000 1545 l0 -235 298 0 297 0 -3 -655 -2 -655 295 0 295 0 0 655 0
655 300 0 300 0 0 235 0 235 -890 0 -890 0 0 -235z"/>
<path d="M12100 1350 l0 -70 58 0 c54 0 61 -3 95 -38 l37 -38 -95 -47 -95 -47
0 -158 0 -159 40 -12 40 -12 0 -79 0 -79 -40 -12 -40 -12 0 -74 c0 -40 2 -73
3 -73 2 0 105 38 228 84 l224 84 3 79 3 78 -226 84 c-124 47 -222 88 -218 92
5 4 67 44 138 88 l130 80 60 -57 c33 -32 72 -68 88 -82 l27 -23 0 91 0 91 -85
73 -85 73 85 3 85 3 0 69 0 70 -230 0 -230 0 0 -70z m319 -655 c10 -4 -13 -16
-59 -31 -41 -13 -76 -24 -77 -24 -2 0 -3 22 -3 49 l0 49 62 -19 c34 -10 69
-21 77 -24z"/>
<path d="M8365 1400 c-147 -13 -245 -51 -327 -128 -149 -139 -150 -367 -4
-499 81 -72 195 -121 411 -174 119 -29 166 -50 198 -89 31 -36 35 -85 13 -129
-20 -37 -54 -59 -117 -72 -121 -26 -222 32 -263 151 -13 36 -27 64 -32 64 -5
-1 -74 -5 -154 -9 -125 -6 -212 -13 -216 -18 -7 -10 33 -146 57 -195 90 -183
248 -256 549 -254 166 1 262 20 360 73 192 102 279 340 194 529 -64 142 -203
218 -536 295 -127 29 -177 55 -193 98 -30 87 117 150 231 98 48 -22 80 -59 96
-113 l12 -40 70 6 c39 3 123 9 186 12 63 3 117 8 119 10 8 7 -19 114 -41 160
-30 65 -106 139 -171 169 -101 46 -282 69 -442 55z"/>
<path d="M9392 732 c-133 -356 -242 -650 -242 -654 0 -5 92 -8 205 -8 l204 0
21 73 c43 148 44 150 86 142 11 -2 109 -4 220 -4 l201 -1 30 -103 30 -102 212
-3 c116 -1 211 1 211 5 0 5 -110 298 -243 653 l-243 645 -224 2 -225 3 -243
-648z m538 67 l68 -224 -74 -3 c-41 -2 -106 -2 -143 0 l-69 3 40 130 c21 72
53 174 69 228 17 55 33 97 35 94 3 -3 36 -105 74 -228z"/>
<path d="M10710 725 l0 -655 205 0 205 0 0 265 0 265 34 0 c52 0 103 -26 134
-68 15 -21 78 -134 141 -250 l114 -212 229 0 c127 0 228 4 226 9 -1 4 -50 99
-107 209 -116 225 -173 300 -254 337 l-49 23 39 12 c69 23 127 58 170 102 160
165 123 467 -70 564 -96 49 -149 54 -599 54 l-418 0 0 -655z m715 369 c31 -15
43 -28 55 -61 13 -38 13 -48 0 -85 -8 -22 -26 -49 -40 -59 -34 -25 -114 -39
-226 -39 l-94 0 0 136 0 137 133 -5 c104 -3 141 -9 172 -24z"/>
<path d="M12100 320 l0 -70 95 0 c74 0 95 -3 95 -14 0 -25 -34 -55 -112 -96
l-78 -42 0 -49 0 -49 66 0 c64 0 68 2 105 39 22 21 39 33 39 26 0 -7 9 -24 21
-39 19 -24 26 -26 97 -26 42 0 82 4 89 8 32 20 43 81 43 232 l0 150 -230 0
-230 0 0 -70z m370 -109 c0 -60 -15 -91 -44 -91 -30 0 -42 15 -51 62 -11 57
-3 68 50 68 l45 0 0 -39z"/>
</g>
</svg>
