<?xml version="1.0" encoding="UTF-8"?>
<!DOCTYPE svg PUBLIC "-//W3C//DTD SVG 1.1//EN" "http://www.w3.org/Graphics/SVG/1.1/DTD/svg11.dtd">
<svg xmlns="http://www.w3.org/2000/svg" version="1.1" width="542px" height="460px" style="shape-rendering:geometricPrecision; text-rendering:geometricPrecision; image-rendering:optimizeQuality; fill-rule:evenodd; clip-rule:evenodd" xmlns:xlink="http://www.w3.org/1999/xlink">
<g><path style="opacity:0.776" fill="#b8584f" d="M 293.5,18.5 C 292.504,18.4142 291.671,18.7476 291,19.5C 287.691,17.2436 284.024,15.9103 280,15.5C 273.521,17.2711 267.021,18.9377 260.5,20.5C 266.116,17.1362 272.283,14.8029 279,13.5C 284.163,14.4909 288.996,16.1576 293.5,18.5 Z"/></g>
<g><path style="opacity:1" fill="#bb312a" d="M 293.5,18.5 C 294.082,19.9311 294.915,21.2644 296,22.5C 296.414,22.0426 296.914,21.7093 297.5,21.5C 302.338,24.5761 307.672,26.5761 313.5,27.5C 313.944,29.1132 314.944,30.2798 316.5,31C 321.147,33.5798 326.147,35.0798 331.5,35.5C 331.5,36.5 331.5,37.5 331.5,38.5C 333.199,38.3398 334.866,38.5065 336.5,39C 344.988,42.9317 353.655,46.4317 362.5,49.5C 365.262,51.7655 368.595,53.0989 372.5,53.5C 372.833,53.5 373.167,53.5 373.5,53.5C 373.5,54.5 373.5,55.5 373.5,56.5C 374.833,56.5 376.167,56.5 377.5,56.5C 377.5,57.5 377.5,58.5 377.5,59.5C 383.261,61.7198 389.261,63.0532 395.5,63.5C 396.234,64.7079 396.567,66.0413 396.5,67.5C 401.538,67.1059 405.705,68.7726 409,72.5C 409.333,71.8333 409.667,71.1667 410,70.5C 412.417,72.0421 414.917,73.5421 417.5,75C 419.134,75.4935 420.801,75.6602 422.5,75.5C 422.833,75.5 423.167,75.5 423.5,75.5C 423.414,76.4959 423.748,77.3292 424.5,78C 429.858,80.7302 435.524,82.5635 441.5,83.5C 449.376,85.9468 456.543,89.6135 463,94.5C 466.373,102.867 468.54,111.534 469.5,120.5C 469.933,125.833 470.433,131.166 471,136.5C 474.819,151.276 477.986,166.11 480.5,181C 480.836,182.03 481.503,182.53 482.5,182.5C 483.328,190.486 484.161,198.486 485,206.5C 486.044,207.623 486.71,208.956 487,210.5C 487.76,214.819 488.427,219.152 489,223.5C 489.743,226.192 490.91,228.525 492.5,230.5C 493.593,260.822 493.76,291.155 493,321.5C 491.175,323.48 490.341,325.813 490.5,328.5C 488.473,328.338 486.473,328.505 484.5,329C 484.833,329.333 485.167,329.667 485.5,330C 479.936,331.01 474.602,330.343 469.5,328C 467.501,324.71 464.501,323.21 460.5,323.5C 457.24,322.226 454.24,320.56 451.5,318.5C 451.5,317.5 451.5,316.5 451.5,315.5C 448.612,315.78 447.112,314.447 447,311.5C 443.654,312.725 440.654,312.058 438,309.5C 437.5,282.169 437.333,254.835 437.5,227.5C 437.842,226.662 438.508,226.328 439.5,226.5C 443.818,227.992 447.818,229.992 451.5,232.5C 454.555,235.205 457.555,238.038 460.5,241C 462.698,241.373 464.865,241.873 467,242.5C 471.632,245.386 476.465,247.886 481.5,250C 484.237,251.08 485.904,250.246 486.5,247.5C 485.057,243.144 483.557,238.81 482,234.5C 481.225,236.223 479.892,237.223 478,237.5C 472.979,235.117 467.812,233.284 462.5,232C 459.214,228.83 455.214,227.33 450.5,227.5C 438.811,221.991 427.477,215.991 416.5,209.5C 415.826,207.976 414.826,206.642 413.5,205.5C 408.005,205.006 405.339,202.006 405.5,196.5C 408.045,196.849 410.045,196.016 411.5,194C 406.177,194.492 400.843,195.325 395.5,196.5C 392.777,195.364 390.11,194.031 387.5,192.5C 385.547,191.844 383.547,191.511 381.5,191.5C 350.349,175.887 319.349,159.887 288.5,143.5C 286.74,139.765 283.74,138.098 279.5,138.5C 276,138.378 273.333,139.711 271.5,142.5C 268,142.61 264.666,143.443 261.5,145C 260.624,146.585 259.291,147.585 257.5,148C 253.469,148.481 249.469,149.147 245.5,150C 247.037,151.11 247.703,152.61 247.5,154.5C 242.734,157.724 237.734,160.724 232.5,163.5C 231.903,162.861 231.07,162.528 230,162.5C 227.64,163.78 225.14,164.447 222.5,164.5C 222.649,163.448 222.483,162.448 222,161.5C 219.595,162.274 217.095,162.774 214.5,163C 210.277,165.861 210.61,167.361 215.5,167.5C 215.5,168.5 215.5,169.5 215.5,170.5C 211.209,169.82 208.543,171.486 207.5,175.5C 203.35,175.401 199.85,176.735 197,179.5C 195.16,178.167 194.66,178.334 195.5,180C 193.714,180.196 192.381,181.029 191.5,182.5C 188.123,183.917 184.789,185.251 181.5,186.5C 181.5,187.5 181.5,188.5 181.5,189.5C 180.609,190.11 179.609,190.443 178.5,190.5C 173.455,190.69 169.122,192.523 165.5,196C 162.907,196.537 160.407,197.37 158,198.5C 154.862,197.597 152.196,195.931 150,193.5C 147.812,194.059 147.146,195.393 148,197.5C 149.699,198.406 151.533,198.739 153.5,198.5C 153.5,199.833 153.5,201.167 153.5,202.5C 151.473,202.338 149.473,202.505 147.5,203C 148.167,203.333 148.833,203.667 149.5,204C 147.676,204.66 146.343,205.827 145.5,207.5C 145.158,208.338 144.492,208.672 143.5,208.5C 138.771,209.692 134.104,211.192 129.5,213C 129.833,213.333 130.167,213.667 130.5,214C 128.065,214.075 127.398,214.908 128.5,216.5C 123.691,217.455 119.024,218.955 114.5,221C 115.252,221.671 115.586,222.504 115.5,223.5C 115.167,223.5 114.833,223.5 114.5,223.5C 112.801,223.62 111.135,223.954 109.5,224.5C 102.283,227.778 95.2831,231.612 88.5,236C 86.5273,236.495 84.5273,236.662 82.5,236.5C 82.5,237.5 82.5,238.5 82.5,239.5C 79.8282,239.948 77.8282,241.281 76.5,243.5C 75.3398,244.265 74.3398,245.265 73.5,246.5C 73.8333,247.5 74.5,248.167 75.5,248.5C 85.9552,242.703 96.6219,237.37 107.5,232.5C 110.487,232.002 113.487,231.502 116.5,231C 117.337,229.989 117.67,228.822 117.5,227.5C 118.5,227.5 119.5,227.5 120.5,227.5C 120.5,254.5 120.5,281.5 120.5,308.5C 118.202,309.31 115.868,310.144 113.5,311C 114.171,311.986 114.171,313.153 113.5,314.5C 107.505,314.785 102.338,317.118 98,321.5C 96.187,320.391 95.3537,321.058 95.5,323.5C 93.5,323.5 91.5,323.5 89.5,323.5C 89.5,324.833 89.5,326.167 89.5,327.5C 89.5,327.833 89.5,328.167 89.5,328.5C 82.5775,329.822 75.5775,330.488 68.5,330.5C 68.5,330.167 68.5,329.833 68.5,329.5C 67.5088,327.518 66.5088,325.518 65.5,323.5C 64.3335,295.506 64.1668,267.506 65,239.5C 66.8843,234.066 67.7177,228.399 67.5,222.5C 68.4584,222.047 69.2917,221.381 70,220.5C 71.9684,211.945 73.1351,203.279 73.5,194.5C 73.5,194.167 73.5,193.833 73.5,193.5C 74.7899,192.942 75.6232,191.942 76,190.5C 77.6702,182.42 79.3369,174.42 81,166.5C 82.4705,165.619 83.3038,164.286 83.5,162.5C 82.7135,156.86 82.7135,151.193 83.5,145.5C 83.5,144.833 83.5,144.167 83.5,143.5C 84.5862,143.38 85.2528,142.713 85.5,141.5C 89.4583,129.853 91.9583,117.853 93,105.5C 95.2636,102.924 96.4303,99.9243 96.5,96.5C 97.9778,96.762 99.3112,96.4287 100.5,95.5C 101.685,94.147 103.019,92.9803 104.5,92C 104.167,91.6667 103.833,91.3333 103.5,91C 106.611,90.556 109.277,89.2227 111.5,87C 113.134,86.5065 114.801,86.3398 116.5,86.5C 116.5,85.5 116.5,84.5 116.5,83.5C 134.523,75.1456 152.856,67.1456 171.5,59.5C 176.99,59.1063 182.157,57.773 187,55.5C 187.561,56.0219 188.228,56.3552 189,56.5C 190.807,54.6798 192.973,53.5131 195.5,53C 196.5,50.6667 198.167,49 200.5,48C 204.611,46.1095 208.944,45.1095 213.5,45C 212.098,43.6575 212.431,42.8242 214.5,42.5C 216.666,42.4296 216.999,43.0962 215.5,44.5C 218.446,45.6548 221.446,45.8214 224.5,45C 223.023,42.8515 221.023,41.5182 218.5,41C 224.5,38.1273 230.833,36.1273 237.5,35C 237.043,34.586 236.709,34.086 236.5,33.5C 237.826,32.3578 238.826,31.0245 239.5,29.5C 246.38,26.2271 253.38,23.2271 260.5,20.5C 267.021,18.9377 273.521,17.2711 280,15.5C 284.024,15.9103 287.691,17.2436 291,19.5C 291.671,18.7476 292.504,18.4142 293.5,18.5 Z"/></g>
<g><path style="opacity:0.986" fill="#bb5a52" d="M 293.5,18.5 C 300.239,21.5164 306.906,24.5164 313.5,27.5C 307.672,26.5761 302.338,24.5761 297.5,21.5C 296.914,21.7093 296.414,22.0426 296,22.5C 294.915,21.2644 294.082,19.9311 293.5,18.5 Z"/></g>
<g><path style="opacity:0.996" fill="#bf6157" d="M 313.5,27.5 C 319.835,29.6727 325.835,32.3394 331.5,35.5C 326.147,35.0798 321.147,33.5798 316.5,31C 314.944,30.2798 313.944,29.1132 313.5,27.5 Z"/></g>
<g><path style="opacity:0.996" fill="#be625d" d="M 331.5,35.5 C 342.258,39.3818 352.591,44.0485 362.5,49.5C 353.655,46.4317 344.988,42.9317 336.5,39C 334.866,38.5065 333.199,38.3398 331.5,38.5C 331.5,37.5 331.5,36.5 331.5,35.5 Z"/></g>
<g><path style="opacity:1" fill="#b73f38" d="M 239.5,29.5 C 238.826,31.0245 237.826,32.3578 236.5,33.5C 236.709,34.086 237.043,34.586 237.5,35C 230.833,36.1273 224.5,38.1273 218.5,41C 221.023,41.5182 223.023,42.8515 224.5,45C 221.446,45.8214 218.446,45.6548 215.5,44.5C 216.999,43.0962 216.666,42.4296 214.5,42.5C 212.431,42.8242 212.098,43.6575 213.5,45C 208.944,45.1095 204.611,46.1095 200.5,48C 198.167,49 196.5,50.6667 195.5,53C 192.973,53.5131 190.807,54.6798 189,56.5C 188.228,56.3552 187.561,56.0219 187,55.5C 182.157,57.773 176.99,59.1063 171.5,59.5C 193.792,49.0287 216.459,39.0287 239.5,29.5 Z"/></g>
<g><path style="opacity:0.929" fill="#be6a66" d="M 362.5,49.5 C 363.873,49.3433 365.207,49.51 366.5,50C 368.618,51.0821 370.618,52.2488 372.5,53.5C 368.595,53.0989 365.262,51.7655 362.5,49.5 Z"/></g>
<g><path style="opacity:1" fill="#bc4a44" d="M 373.5,53.5 C 380.99,56.6557 388.323,59.989 395.5,63.5C 389.261,63.0532 383.261,61.7198 377.5,59.5C 377.5,58.5 377.5,57.5 377.5,56.5C 376.167,56.5 374.833,56.5 373.5,56.5C 373.5,55.5 373.5,54.5 373.5,53.5 Z"/></g>
<g><path style="opacity:0.991" fill="#bb564d" d="M 395.5,63.5 C 404.945,66.7492 413.945,70.7492 422.5,75.5C 420.801,75.6602 419.134,75.4935 417.5,75C 414.917,73.5421 412.417,72.0421 410,70.5C 409.667,71.1667 409.333,71.8333 409,72.5C 405.705,68.7726 401.538,67.1059 396.5,67.5C 396.567,66.0413 396.234,64.7079 395.5,63.5 Z"/></g>
<g><path style="opacity:0.945" fill="#b95851" d="M 423.5,75.5 C 429.661,77.9903 435.661,80.657 441.5,83.5C 435.524,82.5635 429.858,80.7302 424.5,78C 423.748,77.3292 423.414,76.4959 423.5,75.5 Z"/></g>
<g><path style="opacity:1" fill="#b0403a" d="M 116.5,83.5 C 116.5,84.5 116.5,85.5 116.5,86.5C 114.801,86.3398 113.134,86.5065 111.5,87C 109.277,89.2227 106.611,90.556 103.5,91C 103.833,91.3333 104.167,91.6667 104.5,92C 103.019,92.9803 101.685,94.147 100.5,95.5C 99.3112,96.4287 97.9778,96.762 96.5,96.5C 96.4303,99.9243 95.2636,102.924 93,105.5C 91.9583,117.853 89.4583,129.853 85.5,141.5C 85.2528,142.713 84.5862,143.38 83.5,143.5C 86.5504,126.977 90.3837,110.643 95,94.5C 101.457,89.6135 108.624,85.9468 116.5,83.5 Z"/></g>
<g><path style="opacity:0.996" fill="#c05f5a" d="M 288.5,143.5 C 285.255,142.292 282.088,140.959 279,139.5C 276.577,140.626 274.077,141.626 271.5,142.5C 273.333,139.711 276,138.378 279.5,138.5C 283.74,138.098 286.74,139.765 288.5,143.5 Z"/></g>
<g><path style="opacity:1" fill="#ba4b43" d="M 271.5,142.5 C 263.807,147.013 255.807,151.013 247.5,154.5C 247.703,152.61 247.037,151.11 245.5,150C 249.469,149.147 253.469,148.481 257.5,148C 259.291,147.585 260.624,146.585 261.5,145C 264.666,143.443 268,142.61 271.5,142.5 Z"/></g>
<g><path style="opacity:1" fill="#b1433d" d="M 83.5,145.5 C 82.7135,151.193 82.7135,156.86 83.5,162.5C 83.3038,164.286 82.4705,165.619 81,166.5C 79.3369,174.42 77.6702,182.42 76,190.5C 75.6232,191.942 74.7899,192.942 73.5,193.5C 75.9896,177.199 79.323,161.199 83.5,145.5 Z"/></g>
<g><path style="opacity:1" fill="#ba413a" d="M 232.5,163.5 C 224.381,167.724 216.048,171.724 207.5,175.5C 208.543,171.486 211.209,169.82 215.5,170.5C 215.5,169.5 215.5,168.5 215.5,167.5C 210.61,167.361 210.277,165.861 214.5,163C 217.095,162.774 219.595,162.274 222,161.5C 222.483,162.448 222.649,163.448 222.5,164.5C 225.14,164.447 227.64,163.78 230,162.5C 231.07,162.528 231.903,162.861 232.5,163.5 Z"/></g>
<g><path style="opacity:0.91" fill="#ac4b48" d="M 469.5,120.5 C 474.322,140.939 478.656,161.605 482.5,182.5C 481.503,182.53 480.836,182.03 480.5,181C 477.986,166.11 474.819,151.276 471,136.5C 470.433,131.166 469.933,125.833 469.5,120.5 Z"/></g>
<g><path style="opacity:0.875" fill="#bf5550" d="M 207.5,175.5 C 199.035,180.339 190.368,185.006 181.5,189.5C 181.5,188.5 181.5,187.5 181.5,186.5C 184.789,185.251 188.123,183.917 191.5,182.5C 192.381,181.029 193.714,180.196 195.5,180C 194.66,178.334 195.16,178.167 197,179.5C 199.85,176.735 203.35,175.401 207.5,175.5 Z"/></g>
<g><path style="opacity:1" fill="#ba4840" d="M 178.5,190.5 C 168.009,196.914 157.009,202.58 145.5,207.5C 146.343,205.827 147.676,204.66 149.5,204C 148.833,203.667 148.167,203.333 147.5,203C 149.473,202.505 151.473,202.338 153.5,202.5C 153.5,201.167 153.5,199.833 153.5,198.5C 151.533,198.739 149.699,198.406 148,197.5C 147.146,195.393 147.812,194.059 150,193.5C 152.196,195.931 154.862,197.597 158,198.5C 160.407,197.37 162.907,196.537 165.5,196C 169.122,192.523 173.455,190.69 178.5,190.5 Z"/></g>
<g><path style="opacity:1" fill="#b64339" d="M 381.5,191.5 C 383.547,191.511 385.547,191.844 387.5,192.5C 390.11,194.031 392.777,195.364 395.5,196.5C 400.843,195.325 406.177,194.492 411.5,194C 410.045,196.016 408.045,196.849 405.5,196.5C 405.339,202.006 408.005,205.006 413.5,205.5C 414.826,206.642 415.826,207.976 416.5,209.5C 404.356,204.262 392.689,198.262 381.5,191.5 Z"/></g>
<g><path style="opacity:1" fill="#ab4340" d="M 482.5,182.5 C 486.036,198.358 489.369,214.358 492.5,230.5C 490.91,228.525 489.743,226.192 489,223.5C 488.427,219.152 487.76,214.819 487,210.5C 486.71,208.956 486.044,207.623 485,206.5C 484.161,198.486 483.328,190.486 482.5,182.5 Z"/></g>
<g><path style="opacity:1" fill="#c05b4f" d="M 143.5,208.5 C 138.796,211.528 133.796,214.195 128.5,216.5C 127.398,214.908 128.065,214.075 130.5,214C 130.167,213.667 129.833,213.333 129.5,213C 134.104,211.192 138.771,209.692 143.5,208.5 Z"/></g>
<g><path style="opacity:0.996" fill="#bc5a50" d="M 128.5,216.5 C 124.334,219.084 120,221.417 115.5,223.5C 115.586,222.504 115.252,221.671 114.5,221C 119.024,218.955 123.691,217.455 128.5,216.5 Z"/></g>
<g><path style="opacity:1" fill="#af443f" d="M 73.5,194.5 C 73.1351,203.279 71.9684,211.945 70,220.5C 69.2917,221.381 68.4584,222.047 67.5,222.5C 68.6274,212.854 70.6274,203.521 73.5,194.5 Z"/></g>
<g><path style="opacity:0.02" fill="#cb9493" d="M 439.5,226.5 C 438.508,226.328 437.842,226.662 437.5,227.5C 436.502,254.662 436.169,281.995 436.5,309.5C 435.336,281.67 435.17,253.67 436,225.5C 437.579,224.2 438.745,224.534 439.5,226.5 Z"/></g>
<g><path style="opacity:1" fill="#b85b55" d="M 114.5,223.5 C 102.088,230.561 89.4213,237.228 76.5,243.5C 77.8282,241.281 79.8282,239.948 82.5,239.5C 82.5,238.5 82.5,237.5 82.5,236.5C 84.5273,236.662 86.5273,236.495 88.5,236C 95.2831,231.612 102.283,227.778 109.5,224.5C 111.135,223.954 112.801,223.62 114.5,223.5 Z"/></g>
<g><path style="opacity:1" fill="#b43f38" d="M 450.5,227.5 C 455.214,227.33 459.214,228.83 462.5,232C 467.812,233.284 472.979,235.117 478,237.5C 479.892,237.223 481.225,236.223 482,234.5C 483.557,238.81 485.057,243.144 486.5,247.5C 485.904,250.246 484.237,251.08 481.5,250C 476.465,247.886 471.632,245.386 467,242.5C 464.865,241.873 462.698,241.373 460.5,241C 457.555,238.038 454.555,235.205 451.5,232.5C 462.091,238.591 473.091,243.924 484.5,248.5C 484.67,247.178 484.337,246.011 483.5,245C 472.189,239.423 461.189,233.59 450.5,227.5 Z"/></g>
<g><path style="opacity:0.757" fill="#9d332f" d="M 437.5,227.5 C 437.333,254.835 437.5,282.169 438,309.5C 440.654,312.058 443.654,312.725 447,311.5C 447.112,314.447 448.612,315.78 451.5,315.5C 451.5,316.5 451.5,317.5 451.5,318.5C 445.962,316.238 440.962,313.238 436.5,309.5C 436.169,281.995 436.502,254.662 437.5,227.5 Z"/></g>
<g><path style="opacity:0.706" fill="#b45d56" d="M 67.5,222.5 C 67.7177,228.399 66.8843,234.066 65,239.5C 64.1668,267.506 64.3335,295.506 65.5,323.5C 66.5088,325.518 67.5088,327.518 68.5,329.5C 65.7959,327.951 63.9626,325.617 63,322.5C 62.3333,295.5 62.3333,268.5 63,241.5C 64.0856,234.932 65.5856,228.599 67.5,222.5 Z"/></g>
<g><path style="opacity:0.701" fill="#a23531" d="M 119.5,225.5 C 121.492,253.147 122.158,281.147 121.5,309.5C 121.631,310.376 121.298,311.043 120.5,311.5C 118.338,313.02 116.005,314.02 113.5,314.5C 114.171,313.153 114.171,311.986 113.5,311C 115.868,310.144 118.202,309.31 120.5,308.5C 120.5,281.5 120.5,254.5 120.5,227.5C 119.5,227.5 118.5,227.5 117.5,227.5C 117.67,228.822 117.337,229.989 116.5,231C 113.487,231.502 110.487,232.002 107.5,232.5C 111.136,229.677 115.136,227.344 119.5,225.5 Z"/></g>
<g><path style="opacity:0.051" fill="#d8b0a0" d="M 119.5,225.5 C 120.209,224.596 121.209,224.263 122.5,224.5C 122.831,253.005 122.498,281.338 121.5,309.5C 122.158,281.147 121.492,253.147 119.5,225.5 Z"/></g>
<g><path style="opacity:1" fill="#bf5852" d="M 113.5,314.5 C 106.01,319.629 98.0099,323.962 89.5,327.5C 89.5,326.167 89.5,324.833 89.5,323.5C 91.5,323.5 93.5,323.5 95.5,323.5C 95.3537,321.058 96.187,320.391 98,321.5C 102.338,317.118 107.505,314.785 113.5,314.5 Z"/></g>
<g><path style="opacity:1" fill="#c1635e" d="M 492.5,230.5 C 493.632,233.628 494.465,236.962 495,240.5C 495.975,268.895 495.642,297.228 494,325.5C 488.482,333.671 481.315,335.505 472.5,331C 468.3,328.738 464.3,326.238 460.5,323.5C 464.501,323.21 467.501,324.71 469.5,328C 474.602,330.343 479.936,331.01 485.5,330C 485.167,329.667 484.833,329.333 484.5,329C 486.473,328.505 488.473,328.338 490.5,328.5C 490.341,325.813 491.175,323.48 493,321.5C 493.76,291.155 493.593,260.822 492.5,230.5 Z"/></g>
<g><path style="opacity:0.59" fill="#bd625c" d="M 89.5,328.5 C 82.9036,334.064 75.9036,334.73 68.5,330.5C 75.5775,330.488 82.5775,329.822 89.5,328.5 Z"/></g>
<g><path style="opacity:1" fill="#bb332b" d="M 304.5,377.5 C 304.389,378.117 304.056,378.617 303.5,379C 307.041,380.44 310.708,381.274 314.5,381.5C 317.682,382.594 320.682,383.928 323.5,385.5C 331.297,389.794 339.297,393.794 347.5,397.5C 350.299,398.004 352.799,399.004 355,400.5C 355.671,399.748 356.504,399.414 357.5,399.5C 357.918,400.222 358.584,400.722 359.5,401C 359.167,401.333 358.833,401.667 358.5,402C 362.162,403.39 365.828,404.89 369.5,406.5C 370.833,418.167 370.833,429.833 369.5,441.5C 367.49,443.171 365.157,443.838 362.5,443.5C 358.447,442.65 354.447,441.484 350.5,440C 338.992,435.408 327.658,430.575 316.5,425.5C 315.657,423.827 314.324,422.66 312.5,422C 306.79,419.317 300.79,417.483 294.5,416.5C 290.306,416.27 286.806,414.603 284,411.5C 283.167,398.82 283.334,386.154 284.5,373.5C 286.527,371.661 288.86,371.161 291.5,372C 295.648,374.286 299.982,376.119 304.5,377.5 Z"/></g>
<g><path style="opacity:0.843" fill="#c46e67" d="M 304.5,377.5 C 307.911,378.88 311.244,380.214 314.5,381.5C 310.708,381.274 307.041,380.44 303.5,379C 304.056,378.617 304.389,378.117 304.5,377.5 Z"/></g>
<g><path style="opacity:1" fill="#bb3129" d="M 233.5,426.5 C 221.471,431.342 209.471,436.508 197.5,442C 194.535,443.498 191.535,443.665 188.5,442.5C 187.356,431.547 187.189,420.547 188,409.5C 188.273,407.671 189.107,406.171 190.5,405C 193.239,403.974 195.572,402.474 197.5,400.5C 201.796,399.57 206.13,398.737 210.5,398C 212.041,396.629 213.375,395.129 214.5,393.5C 220.136,392.84 225.136,390.84 229.5,387.5C 232.374,387.549 235.208,387.216 238,386.5C 244.945,383.407 252.111,380.907 259.5,379C 261.303,378.363 262.636,377.197 263.5,375.5C 265.765,374.353 268.098,374.186 270.5,375C 271.126,375.75 271.626,376.584 272,377.5C 272.5,386.827 272.666,396.161 272.5,405.5C 269.45,404.923 267.45,406.09 266.5,409C 269.279,409.149 269.779,409.983 268,411.5C 266.984,410.366 266.317,410.699 266,412.5C 265.586,412.043 265.086,411.709 264.5,411.5C 262.827,413.086 260.827,413.753 258.5,413.5C 258.703,415.39 258.037,416.89 256.5,418C 254.024,418.424 251.691,419.257 249.5,420.5C 247.813,420.24 246.313,419.573 245,418.5C 243.383,419.536 243.216,420.703 244.5,422C 240.679,423.559 237.012,425.059 233.5,426.5 Z"/></g>
<g><path style="opacity:0.612" fill="#be6561" d="M 229.5,387.5 C 225.136,390.84 220.136,392.84 214.5,393.5C 219.265,391.129 224.265,389.129 229.5,387.5 Z"/></g>
<g><path style="opacity:0.992" fill="#bc6259" d="M 323.5,385.5 C 335.231,389.621 346.564,394.288 357.5,399.5C 356.504,399.414 355.671,399.748 355,400.5C 352.799,399.004 350.299,398.004 347.5,397.5C 339.297,393.794 331.297,389.794 323.5,385.5 Z"/></g>
<g><path style="opacity:1" fill="#b64f48" d="M 214.5,393.5 C 213.375,395.129 212.041,396.629 210.5,398C 206.13,398.737 201.796,399.57 197.5,400.5C 202.908,397.817 208.574,395.483 214.5,393.5 Z"/></g>
<g><path style="opacity:0.714" fill="#bc625b" d="M 357.5,399.5 C 362.712,400.625 367.545,402.625 372,405.5C 372.667,417.167 372.667,428.833 372,440.5C 370.713,444.729 367.88,446.229 363.5,445C 362.944,444.617 362.611,444.117 362.5,443.5C 365.157,443.838 367.49,443.171 369.5,441.5C 370.833,429.833 370.833,418.167 369.5,406.5C 365.828,404.89 362.162,403.39 358.5,402C 358.833,401.667 359.167,401.333 359.5,401C 358.584,400.722 357.918,400.222 357.5,399.5 Z"/></g>
<g><path style="opacity:1" fill="#b43a34" d="M 274.5,410.5 C 268.74,411.969 263.74,414.635 259.5,418.5C 253.621,421.137 247.621,423.47 241.5,425.5C 238.763,425.401 236.096,425.735 233.5,426.5C 237.012,425.059 240.679,423.559 244.5,422C 243.216,420.703 243.383,419.536 245,418.5C 246.313,419.573 247.813,420.24 249.5,420.5C 251.691,419.257 254.024,418.424 256.5,418C 258.037,416.89 258.703,415.39 258.5,413.5C 260.827,413.753 262.827,413.086 264.5,411.5C 265.086,411.709 265.586,412.043 266,412.5C 266.317,410.699 266.984,410.366 268,411.5C 269.779,409.983 269.279,409.149 266.5,409C 267.45,406.09 269.45,404.923 272.5,405.5C 272.666,396.161 272.5,386.827 272,377.5C 271.626,376.584 271.126,375.75 270.5,375C 268.098,374.186 265.765,374.353 263.5,375.5C 262.636,377.197 261.303,378.363 259.5,379C 252.111,380.907 244.945,383.407 238,386.5C 235.208,387.216 232.374,387.549 229.5,387.5C 239.995,382.703 250.662,378.203 261.5,374C 265.017,372.266 268.684,371.599 272.5,372C 273.126,372.75 273.626,373.584 274,374.5C 274.178,386.076 274.678,397.576 275.5,409C 274.944,409.383 274.611,409.883 274.5,410.5 Z"/></g>
<g><path style="opacity:0.98" fill="#bd625c" d="M 274.5,410.5 C 274.586,411.496 274.252,412.329 273.5,413C 268.928,415.134 264.261,416.967 259.5,418.5C 263.74,414.635 268.74,411.969 274.5,410.5 Z"/></g>
<g><path style="opacity:1" fill="#b6524a" d="M 294.5,416.5 C 300.79,417.483 306.79,419.317 312.5,422C 314.324,422.66 315.657,423.827 316.5,425.5C 308.912,423.036 301.578,420.036 294.5,416.5 Z"/></g>
<g><path style="opacity:0.882" fill="#b55853" d="M 197.5,400.5 C 195.572,402.474 193.239,403.974 190.5,405C 189.107,406.171 188.273,407.671 188,409.5C 187.189,420.547 187.356,431.547 188.5,442.5C 191.535,443.665 194.535,443.498 197.5,442C 209.471,436.508 221.471,431.342 233.5,426.5C 236.096,425.735 238.763,425.401 241.5,425.5C 226.055,432.267 210.388,438.767 194.5,445C 192.029,445.706 189.695,445.373 187.5,444C 186.345,431.242 186.178,418.409 187,405.5C 190.051,402.891 193.551,401.225 197.5,400.5 Z"/></g>
</svg>
